<svg width="16" height="16" viewBox="0 0 16 16" fill="none" xmlns="http://www.w3.org/2000/svg">
<path d="M13.9487 15.6059L8.35705 9.01292C8.23549 8.86959 8.14959 8.71433 8.09935 8.54711C8.0483 8.3799 8.02277 8.20075 8.02277 8.00965C8.02277 7.81855 8.0483 7.63939 8.09935 7.47218C8.14959 7.30497 8.23549 7.1497 8.35705 7.00637L13.9487 0.413436C14.1715 0.150674 14.4499 0.013083 14.7838 0.000661501C15.1185 -0.0108045 15.4074 0.126787 15.6505 0.413436C15.8733 0.676198 15.9848 1.01062 15.9848 1.41671C15.9848 1.8228 15.8733 2.15722 15.6505 2.41998L10.9401 8.00965L15.6505 13.5993C15.8733 13.8621 15.9896 14.1903 15.9993 14.584C16.0099 14.9786 15.8936 15.3192 15.6505 15.6059C15.4276 15.8686 15.144 16 14.7996 16C14.4552 16 14.1715 15.8686 13.9487 15.6059ZM5.92591 15.6059L0.334282 9.01292C0.212724 8.86959 0.126824 8.71433 0.0765806 8.54711C0.0255267 8.3799 0 8.20075 0 8.00965C0 7.81855 0.0255267 7.63939 0.0765806 7.47218C0.126824 7.30497 0.212724 7.1497 0.334282 7.00637L5.92591 0.413436C6.14876 0.150674 6.42753 0.013083 6.76222 0.000661501C7.0961 -0.0108045 7.38459 0.126787 7.62771 0.413436C7.85056 0.676198 7.96199 1.01062 7.96199 1.41671C7.96199 1.8228 7.85056 2.15722 7.62771 2.41998L2.91737 8.00965L7.62771 13.5993C7.85056 13.8621 7.96726 14.1903 7.97779 14.584C7.98752 14.9786 7.87082 15.3192 7.62771 15.6059C7.40485 15.8686 7.12122 16 6.77681 16C6.4324 16 6.14876 15.8686 5.92591 15.6059Z" fill="white"/>
</svg>
