<svg width="16" height="16" viewBox="0 0 16 16" fill="none" xmlns="http://www.w3.org/2000/svg">
<path d="M2.05132 0.394146L7.64295 6.98708C7.76451 7.13041 7.85041 7.28567 7.90065 7.45289C7.9517 7.6201 7.97723 7.79925 7.97723 7.99035C7.97723 8.18145 7.9517 8.36061 7.90065 8.52782C7.85041 8.69503 7.76451 8.8503 7.64295 8.99363L2.05132 15.5866C1.82847 15.8493 1.5501 15.9869 1.21623 15.9993C0.881539 16.0108 0.59264 15.8732 0.349525 15.5866C0.126671 15.3238 0.0152407 14.9894 0.0152407 14.5833C0.0152407 14.1772 0.126671 13.8428 0.349525 13.58L5.05986 7.99035L0.349525 2.40069C0.126671 2.13793 0.0103807 1.80972 0.000656128 1.41605C-0.00987816 1.02143 0.106411 0.680796 0.349525 0.394146C0.57238 0.131384 0.856012 0 1.20042 0C1.54484 0 1.82847 0.131384 2.05132 0.394146ZM10.0741 0.394146L15.6657 6.98708C15.7873 7.13041 15.8732 7.28567 15.9234 7.45289C15.9745 7.6201 16 7.79925 16 7.99035C16 8.18145 15.9745 8.36061 15.9234 8.52782C15.8732 8.69503 15.7873 8.8503 15.6657 8.99363L10.0741 15.5866C9.85124 15.8493 9.57247 15.9869 9.23778 15.9993C8.9039 16.0108 8.61541 15.8732 8.37229 15.5866C8.14944 15.3238 8.03801 14.9894 8.03801 14.5833C8.03801 14.1772 8.14944 13.8428 8.37229 13.58L13.0826 7.99035L8.37229 2.40069C8.14944 2.13793 8.03274 1.80972 8.02221 1.41605C8.01248 1.02143 8.12918 0.680796 8.37229 0.394146C8.59515 0.131384 8.87878 0 9.22319 0C9.5676 0 9.85124 0.131384 10.0741 0.394146Z" fill="white"/>
</svg>
