<svg width="24" height="27" fill="#F0EEFF"  viewBox="0 0 24 27" xmlns="http://www.w3.org/2000/svg">
<path d="M21.3333 2.7H15.76C15.2 1.134 13.7333 0 12 0C10.2667 0 8.8 1.134 8.24 2.7H2.66667C1.2 2.7 0 3.915 0 5.4V24.3C0 25.785 1.2 27 2.66667 27H21.3333C22.8 27 24 25.785 24 24.3V5.4C24 3.915 22.8 2.7 21.3333 2.7ZM12 2.7C12.7333 2.7 13.3333 3.3075 13.3333 4.05C13.3333 4.7925 12.7333 5.4 12 5.4C11.2667 5.4 10.6667 4.7925 10.6667 4.05C10.6667 3.3075 11.2667 2.7 12 2.7ZM9.33333 21.6L4 16.2L5.88 14.2965L9.33333 17.7795L18.12 8.883L20 10.8L9.33333 21.6Z" fill="white"/>
</svg>
