<svg width="42" height="39" viewBox="0 0 42 39" fill="none" xmlns="http://www.w3.org/2000/svg">
<g filter="url(#filter0_d_883_2728)">
<path d="M13.2709 2.35743C13.1969 2.28314 13.1089 2.22419 13.0121 2.18397C12.9152 2.14375 12.8114 2.12305 12.7065 2.12305C12.6016 2.12305 12.4978 2.14375 12.4009 2.18397C12.304 2.22419 12.2161 2.28314 12.142 2.35743L7.91328 6.5616L6.40586 5.0927C6.33183 5.01841 6.24386 4.95946 6.147 4.91924C6.05014 4.87902 5.94629 4.85832 5.84141 4.85832C5.73653 4.85832 5.63268 4.87902 5.53582 4.91924C5.43896 4.95946 5.35099 5.01841 5.27696 5.0927L4.23438 6.13661C4.16009 6.21064 4.10114 6.29861 4.06092 6.39547C4.0207 6.49233 4 6.59618 4 6.70106C4 6.80594 4.0207 6.90979 4.06092 7.00665C4.10114 7.10351 4.16009 7.19148 4.23438 7.26551L7.39465 10.4132C7.5524 10.5631 7.76172 10.6467 7.97936 10.6467C8.197 10.6467 8.40632 10.5631 8.56407 10.4132L9.59934 9.3759L14.3939 4.58203C14.5433 4.43253 14.6277 4.23015 14.6288 4.01881C14.6299 3.80747 14.5476 3.60421 14.3998 3.45313L13.2709 2.35743ZM13.2709 12.9286C13.1969 12.8543 13.1089 12.7954 13.0121 12.7552C12.9152 12.715 12.8114 12.6943 12.7065 12.6943C12.6016 12.6943 12.4978 12.715 12.4009 12.7552C12.304 12.7954 12.2161 12.8543 12.142 12.9286L7.91328 17.16L6.40586 15.6925C6.33183 15.6182 6.24386 15.5592 6.147 15.519C6.05014 15.4788 5.94629 15.4581 5.84141 15.4581C5.73653 15.4581 5.63268 15.4788 5.53582 15.519C5.43896 15.5592 5.35099 15.6182 5.27696 15.6925L4.23438 16.7344C4.16009 16.8084 4.10114 16.8964 4.06092 16.9932C4.0207 17.0901 4 17.194 4 17.2988C4 17.4037 4.0207 17.5076 4.06092 17.6044C4.10114 17.7013 4.16009 17.7893 4.23438 17.8633L7.38668 21.0176C7.54432 21.1675 7.75353 21.2511 7.97106 21.2511C8.18859 21.2511 8.3978 21.1675 8.55543 21.0176L9.59801 19.9757L14.3925 15.1798C14.5414 15.0313 14.6255 14.8301 14.6266 14.6199C14.6277 14.4097 14.5457 14.2076 14.3985 14.0575L13.2709 12.9286ZM8.24996 24.4375C6.49086 24.4375 5.02328 25.8652 5.02328 27.625C5.02328 29.3848 6.49219 30.8125 8.24996 30.8125C9.09534 30.8125 9.9061 30.4767 10.5039 29.8789C11.1016 29.2811 11.4375 28.4704 11.4375 27.625C11.4375 26.7796 11.1016 25.9689 10.5039 25.3711C9.9061 24.7733 9.09534 24.4375 8.24996 24.4375ZM36.9375 25.5H17.8125C17.5307 25.5 17.2604 25.6119 17.0612 25.8112C16.8619 26.0105 16.75 26.2807 16.75 26.5625V28.6875C16.75 28.9693 16.8619 29.2395 17.0612 29.4388C17.2604 29.6381 17.5307 29.75 17.8125 29.75H36.9375C37.2193 29.75 37.4895 29.6381 37.6888 29.4388C37.888 29.2395 38 28.9693 38 28.6875V26.5625C38 26.2807 37.888 26.0105 37.6888 25.8112C37.4895 25.6119 37.2193 25.5 36.9375 25.5ZM36.9375 4.25H17.8125C17.5307 4.25 17.2604 4.36195 17.0612 4.5612C16.8619 4.76046 16.75 5.03071 16.75 5.3125V7.4375C16.75 7.7193 16.8619 7.98955 17.0612 8.1888C17.2604 8.38806 17.5307 8.5 17.8125 8.5H36.9375C37.2193 8.5 37.4895 8.38806 37.6888 8.1888C37.888 7.98955 38 7.7193 38 7.4375V5.3125C38 5.03071 37.888 4.76046 37.6888 4.5612C37.4895 4.36195 37.2193 4.25 36.9375 4.25ZM36.9375 14.875H17.8125C17.5307 14.875 17.2604 14.9869 17.0612 15.1862C16.8619 15.3855 16.75 15.6557 16.75 15.9375V18.0625C16.75 18.3443 16.8619 18.6145 17.0612 18.8138C17.2604 19.0131 17.5307 19.125 17.8125 19.125H36.9375C37.2193 19.125 37.4895 19.0131 37.6888 18.8138C37.888 18.6145 38 18.3443 38 18.0625V15.9375C38 15.6557 37.888 15.3855 37.6888 15.1862C37.4895 14.9869 37.2193 14.875 36.9375 14.875Z" fill="white"/>
</g>
<defs>
<filter id="filter0_d_883_2728" x="0" y="0" width="42" height="42" filterUnits="userSpaceOnUse" color-interpolation-filters="sRGB">
<feFlood flood-opacity="0" result="BackgroundImageFix"/>
<feColorMatrix in="SourceAlpha" type="matrix" values="0 0 0 0 0 0 0 0 0 0 0 0 0 0 0 0 0 0 127 0" result="hardAlpha"/>
<feOffset dy="4"/>
<feGaussianBlur stdDeviation="2"/>
<feComposite in2="hardAlpha" operator="out"/>
<feColorMatrix type="matrix" values="0 0 0 0 0 0 0 0 0 0 0 0 0 0 0 0 0 0 0.25 0"/>
<feBlend mode="normal" in2="BackgroundImageFix" result="effect1_dropShadow_883_2728"/>
<feBlend mode="normal" in="SourceGraphic" in2="effect1_dropShadow_883_2728" result="shape"/>
</filter>
</defs>
</svg>
