<svg width="120" height="78" viewBox="0 0 120 78" fill="none" xmlns="http://www.w3.org/2000/svg">
<g filter="url(#filter0_d_686_2530)">
<path d="M15.307 59.2286C15.4041 59.2286 15.4869 59.2602 15.5554 59.3235C15.624 59.3815 15.6583 59.4553 15.6583 59.545C15.6583 59.6346 15.624 59.7085 15.5554 59.7665C15.4869 59.8245 15.4041 59.8535 15.307 59.8535H12.3427C12.2456 59.8535 12.1628 59.8218 12.0942 59.7586C12.0314 59.6953 12 59.6188 12 59.5292V54.6328C12 54.5432 12.0343 54.4693 12.1028 54.4113C12.1713 54.348 12.257 54.3164 12.3598 54.3164C12.4569 54.3164 12.5397 54.348 12.6083 54.4113C12.6768 54.4693 12.7111 54.5432 12.7111 54.6328V59.371L12.5397 59.2286H15.307ZM20.1732 55.7244C20.2703 55.7244 20.3502 55.756 20.413 55.8193C20.4816 55.8773 20.5159 55.9512 20.5159 56.0408V59.5292C20.5159 59.6188 20.4816 59.6953 20.413 59.7586C20.3502 59.8218 20.2703 59.8535 20.1732 59.8535C20.0704 59.8535 19.9876 59.8218 19.9247 59.7586C19.8619 59.6953 19.8305 59.6188 19.8305 59.5292V58.7777L19.9932 58.7619C19.9932 58.8779 19.9504 59.0045 19.8647 59.1416C19.7791 59.2787 19.662 59.4079 19.5135 59.5292C19.3649 59.6452 19.1879 59.7427 18.9823 59.8218C18.7824 59.8957 18.5654 59.9326 18.3312 59.9326C17.9428 59.9326 17.5944 59.8403 17.286 59.6557C16.9775 59.4659 16.732 59.2101 16.5492 58.8884C16.3721 58.5668 16.2836 58.2003 16.2836 57.7889C16.2836 57.3723 16.3721 57.0058 16.5492 56.6894C16.732 56.3678 16.9775 56.1173 17.286 55.938C17.5944 55.7534 17.9371 55.6611 18.3141 55.6611C18.5596 55.6611 18.7881 55.698 18.9994 55.7719C19.2107 55.8457 19.3935 55.9459 19.5477 56.0724C19.7076 56.199 19.8305 56.3388 19.9161 56.4917C20.0075 56.6446 20.0532 56.7975 20.0532 56.9505L19.8305 56.903V56.0408C19.8305 55.9512 19.8619 55.8773 19.9247 55.8193C19.9876 55.756 20.0704 55.7244 20.1732 55.7244ZM18.4083 59.3472C18.6939 59.3472 18.9452 59.2787 19.1622 59.1416C19.385 59.0045 19.5563 58.8199 19.6763 58.5879C19.8019 58.3506 19.8647 58.0843 19.8647 57.7889C19.8647 57.4989 19.8019 57.2379 19.6763 57.0058C19.5563 56.7685 19.385 56.584 19.1622 56.4521C18.9452 56.315 18.6939 56.2465 18.4083 56.2465C18.1284 56.2465 17.8771 56.3124 17.6544 56.4442C17.4373 56.5761 17.266 56.758 17.1403 56.99C17.0147 57.2221 16.9518 57.4884 16.9518 57.7889C16.9518 58.0843 17.0118 58.3506 17.1318 58.5879C17.2574 58.8199 17.4288 59.0045 17.6458 59.1416C17.8685 59.2787 18.1227 59.3472 18.4083 59.3472ZM23.9707 55.6611C24.3591 55.6611 24.7075 55.7534 25.0159 55.938C25.3243 56.1173 25.5671 56.3651 25.7441 56.6815C25.9269 56.9979 26.0183 57.3644 26.0183 57.781C26.0183 58.1976 25.9269 58.5668 25.7441 58.8884C25.5671 59.2101 25.3243 59.4659 25.0159 59.6557C24.7132 59.8403 24.3705 59.9326 23.9878 59.9326C23.7765 59.9326 23.5766 59.9036 23.3881 59.8456C23.2054 59.7823 23.0368 59.7006 22.8826 59.6004C22.7342 59.4949 22.6085 59.3815 22.5057 59.2602C22.4028 59.1337 22.3286 59.0097 22.2829 58.8884L22.4714 58.7777V59.5687C22.4714 59.6584 22.44 59.7348 22.3771 59.7981C22.3144 59.8614 22.2315 59.893 22.1287 59.893C22.0316 59.893 21.9488 59.864 21.8802 59.806C21.8175 59.7427 21.786 59.6636 21.786 59.5687V54.3243C21.786 54.2347 21.8175 54.1582 21.8802 54.0949C21.9488 54.0316 22.0316 54 22.1287 54C22.2315 54 22.3144 54.0316 22.3771 54.0949C22.44 54.1582 22.4714 54.2347 22.4714 54.3243V56.7606L22.3429 56.6973C22.3829 56.5655 22.4514 56.439 22.5485 56.3177C22.6513 56.1911 22.7741 56.0804 22.9169 55.9854C23.0654 55.8852 23.2282 55.8061 23.4052 55.7481C23.588 55.6901 23.7765 55.6611 23.9707 55.6611ZM23.8936 56.2465C23.608 56.2465 23.3538 56.3124 23.1311 56.4442C22.9141 56.5761 22.7427 56.758 22.617 56.99C22.4971 57.2221 22.4371 57.4857 22.4371 57.781C22.4371 58.0763 22.4971 58.3427 22.617 58.58C22.7427 58.8173 22.9141 59.0045 23.1311 59.1416C23.3538 59.2787 23.608 59.3472 23.8936 59.3472C24.1792 59.3472 24.4305 59.2787 24.6475 59.1416C24.8645 59.0045 25.0359 58.8173 25.1615 58.58C25.2872 58.3427 25.35 58.0763 25.35 57.781C25.35 57.4857 25.2872 57.2221 25.1615 56.99C25.0359 56.758 24.8645 56.5761 24.6475 56.4442C24.4305 56.3124 24.1792 56.2465 23.8936 56.2465ZM31.2552 57.7969C31.2552 58.2082 31.1551 58.5747 30.9553 58.8964C30.761 59.218 30.4955 59.4712 30.1585 59.6557C29.8272 59.8403 29.4531 59.9326 29.0362 59.9326C28.6192 59.9326 28.2423 59.8403 27.9053 59.6557C27.5683 59.4712 27.2999 59.218 27.1 58.8964C26.9058 58.5747 26.8087 58.2082 26.8087 57.7969C26.8087 57.3855 26.9058 57.019 27.1 56.6973C27.2999 56.3757 27.5683 56.1225 27.9053 55.938C28.2423 55.7534 28.6192 55.6611 29.0362 55.6611C29.4531 55.6611 29.8272 55.7534 30.1585 55.938C30.4955 56.1225 30.761 56.3757 30.9553 56.6973C31.1551 57.019 31.2552 57.3855 31.2552 57.7969ZM30.5698 57.7969C30.5698 57.491 30.5012 57.2221 30.3641 56.99C30.2328 56.758 30.05 56.5761 29.8158 56.4442C29.5873 56.3124 29.3275 56.2465 29.0362 56.2465C28.7449 56.2465 28.4821 56.3124 28.248 56.4442C28.0195 56.5761 27.8368 56.758 27.6997 56.99C27.5626 57.2221 27.4941 57.491 27.4941 57.7969C27.4941 58.0974 27.5626 58.3637 27.6997 58.5958C27.8368 58.8278 28.0195 59.0124 28.248 59.1495C28.4821 59.2813 28.7449 59.3472 29.0362 59.3472C29.3275 59.3472 29.5873 59.2813 29.8158 59.1495C30.05 59.0124 30.2328 58.8278 30.3641 58.5958C30.5012 58.3637 30.5698 58.0974 30.5698 57.7969ZM32.6287 59.8535C32.5316 59.8535 32.4488 59.8218 32.3803 59.7586C32.3174 59.6953 32.286 59.6188 32.286 59.5292V56.0804C32.286 55.9907 32.3174 55.9169 32.3803 55.8589C32.4488 55.7956 32.5316 55.764 32.6287 55.764C32.7315 55.764 32.8143 55.7956 32.8772 55.8589C32.94 55.9169 32.9714 55.9907 32.9714 56.0804V57.1245L32.8686 56.9584C32.9029 56.7949 32.9629 56.6367 33.0485 56.4838C33.1399 56.3256 33.2541 56.1858 33.3912 56.0645C33.5283 55.938 33.6853 55.8404 33.8624 55.7719C34.0395 55.698 34.2336 55.6611 34.445 55.6611C34.5706 55.6611 34.6849 55.6901 34.7877 55.7481C34.8962 55.8009 34.9505 55.8773 34.9505 55.9775C34.9505 56.0883 34.919 56.17 34.8562 56.2227C34.7934 56.2755 34.722 56.3018 34.642 56.3018C34.5677 56.3018 34.4964 56.2887 34.4279 56.2623C34.3593 56.2307 34.2737 56.2148 34.1708 56.2148C34.028 56.2148 33.8852 56.2517 33.7425 56.3256C33.6054 56.3941 33.4769 56.4943 33.357 56.6262C33.2427 56.758 33.1485 56.9083 33.0742 57.077C33.0057 57.2405 32.9714 57.4172 32.9714 57.607V59.5292C32.9714 59.6188 32.9372 59.6953 32.8686 59.7586C32.8058 59.8218 32.7258 59.8535 32.6287 59.8535ZM39.2739 55.7244C39.3711 55.7244 39.451 55.756 39.5138 55.8193C39.5824 55.8773 39.6166 55.9512 39.6166 56.0408V59.5292C39.6166 59.6188 39.5824 59.6953 39.5138 59.7586C39.451 59.8218 39.3711 59.8535 39.2739 59.8535C39.1711 59.8535 39.0883 59.8218 39.0255 59.7586C38.9626 59.6953 38.9312 59.6188 38.9312 59.5292V58.7777L39.094 58.7619C39.094 58.8779 39.0512 59.0045 38.9655 59.1416C38.8798 59.2787 38.7628 59.4079 38.6142 59.5292C38.4657 59.6452 38.2887 59.7427 38.0831 59.8218C37.8831 59.8957 37.6662 59.9326 37.432 59.9326C37.0435 59.9326 36.6952 59.8403 36.3867 59.6557C36.0783 59.4659 35.8328 59.2101 35.65 58.8884C35.4729 58.5668 35.3844 58.2003 35.3844 57.7889C35.3844 57.3723 35.4729 57.0058 35.65 56.6894C35.8328 56.3678 36.0783 56.1173 36.3867 55.938C36.6952 55.7534 37.0379 55.6611 37.4148 55.6611C37.6604 55.6611 37.8889 55.698 38.1002 55.7719C38.3115 55.8457 38.4943 55.9459 38.6485 56.0724C38.8084 56.199 38.9312 56.3388 39.0169 56.4917C39.1083 56.6446 39.154 56.7975 39.154 56.9505L38.9312 56.903V56.0408C38.9312 55.9512 38.9626 55.8773 39.0255 55.8193C39.0883 55.756 39.1711 55.7244 39.2739 55.7244ZM37.5091 59.3472C37.7947 59.3472 38.0459 59.2787 38.263 59.1416C38.4857 59.0045 38.6571 58.8199 38.777 58.5879C38.9027 58.3506 38.9655 58.0843 38.9655 57.7889C38.9655 57.4989 38.9027 57.2379 38.777 57.0058C38.6571 56.7685 38.4857 56.584 38.263 56.4521C38.0459 56.315 37.7947 56.2465 37.5091 56.2465C37.2292 56.2465 36.9779 56.3124 36.7551 56.4442C36.5381 56.5761 36.3667 56.758 36.2411 56.99C36.1155 57.2221 36.0526 57.4884 36.0526 57.7889C36.0526 58.0843 36.1126 58.3506 36.2325 58.5879C36.3582 58.8199 36.5295 59.0045 36.7466 59.1416C36.9693 59.2787 37.2235 59.3472 37.5091 59.3472ZM40.7155 55.7877H42.7288C42.8202 55.7877 42.8944 55.8167 42.9516 55.8747C43.0143 55.9327 43.0458 56.0013 43.0458 56.0804C43.0458 56.1647 43.0143 56.2359 42.9516 56.2939C42.8944 56.3467 42.8202 56.373 42.7288 56.373H40.7155C40.6298 56.373 40.5555 56.344 40.4928 56.286C40.4299 56.228 40.3985 56.1568 40.3985 56.0724C40.3985 55.9933 40.4299 55.9274 40.4928 55.8747C40.5555 55.8167 40.6298 55.7877 40.7155 55.7877ZM41.6151 54.7119C41.7121 54.7119 41.7921 54.7436 41.855 54.8068C41.9177 54.8648 41.9492 54.9387 41.9492 55.0283V58.8489C41.9492 58.9755 41.9691 59.0704 42.0092 59.1337C42.0491 59.1969 42.1005 59.2418 42.1634 59.2681C42.2319 59.2892 42.2976 59.2998 42.3604 59.2998C42.4175 59.2998 42.466 59.2919 42.5061 59.276C42.5517 59.255 42.6031 59.2444 42.6603 59.2444C42.7174 59.2444 42.7688 59.2708 42.8145 59.3235C42.8659 59.371 42.8916 59.4342 42.8916 59.5133C42.8916 59.6083 42.8316 59.69 42.7117 59.7586C42.5917 59.8218 42.4575 59.8535 42.309 59.8535C42.229 59.8535 42.1291 59.8482 42.0092 59.8377C41.8949 59.8271 41.7807 59.7928 41.6665 59.7348C41.5522 59.6768 41.4551 59.5819 41.3752 59.4501C41.3009 59.313 41.2638 59.1231 41.2638 58.8805V55.0283C41.2638 54.9387 41.2981 54.8648 41.3666 54.8068C41.4352 54.7436 41.518 54.7119 41.6151 54.7119ZM48.2057 57.7969C48.2057 58.2082 48.1058 58.5747 47.9058 58.8964C47.7117 59.218 47.4461 59.4712 47.1091 59.6557C46.7778 59.8403 46.4037 59.9326 45.9867 59.9326C45.5698 59.9326 45.1929 59.8403 44.8559 59.6557C44.5189 59.4712 44.2505 59.218 44.0505 58.8964C43.8564 58.5747 43.7592 58.2082 43.7592 57.7969C43.7592 57.3855 43.8564 57.019 44.0505 56.6973C44.2505 56.3757 44.5189 56.1225 44.8559 55.938C45.1929 55.7534 45.5698 55.6611 45.9867 55.6611C46.4037 55.6611 46.7778 55.7534 47.1091 55.938C47.4461 56.1225 47.7117 56.3757 47.9058 56.6973C48.1058 57.019 48.2057 57.3855 48.2057 57.7969ZM47.5203 57.7969C47.5203 57.491 47.4518 57.2221 47.3147 56.99C47.1834 56.758 47.0006 56.5761 46.7664 56.4442C46.5379 56.3124 46.278 56.2465 45.9867 56.2465C45.6955 56.2465 45.4328 56.3124 45.1986 56.4442C44.9701 56.5761 44.7873 56.758 44.6502 56.99C44.5132 57.2221 44.4446 57.491 44.4446 57.7969C44.4446 58.0974 44.5132 58.3637 44.6502 58.5958C44.7873 58.8278 44.9701 59.0124 45.1986 59.1495C45.4328 59.2813 45.6955 59.3472 45.9867 59.3472C46.278 59.3472 46.5379 59.2813 46.7664 59.1495C47.0006 59.0124 47.1834 58.8278 47.3147 58.5958C47.4518 58.3637 47.5203 58.0974 47.5203 57.7969ZM45.9353 55.4001C45.8954 55.4001 45.8526 55.3843 45.8068 55.3526C45.7669 55.321 45.7469 55.2788 45.7469 55.2261C45.7469 55.1892 45.764 55.147 45.7983 55.0995L46.3123 54.3243C46.3466 54.2716 46.3923 54.2215 46.4494 54.174C46.5065 54.1266 46.5751 54.1028 46.655 54.1028C46.7693 54.1028 46.8549 54.1318 46.912 54.1898C46.9692 54.2426 46.9977 54.3138 46.9977 54.4034C46.992 54.4456 46.9806 54.4852 46.9634 54.5221C46.9463 54.559 46.9206 54.5985 46.8863 54.6407L46.2352 55.2735C46.1952 55.3157 46.1467 55.3474 46.0896 55.3684C46.0381 55.3895 45.9867 55.4001 45.9353 55.4001ZM49.5793 59.8535C49.4822 59.8535 49.3994 59.8218 49.3309 59.7586C49.268 59.6953 49.2366 59.6188 49.2366 59.5292V56.0804C49.2366 55.9907 49.268 55.9169 49.3309 55.8589C49.3994 55.7956 49.4822 55.764 49.5793 55.764C49.6821 55.764 49.7649 55.7956 49.8278 55.8589C49.8906 55.9169 49.922 55.9907 49.922 56.0804V57.1245L49.8192 56.9584C49.8535 56.7949 49.9135 56.6367 49.9991 56.4838C50.0905 56.3256 50.2048 56.1858 50.3418 56.0645C50.4789 55.938 50.6359 55.8404 50.813 55.7719C50.9901 55.698 51.1842 55.6611 51.3956 55.6611C51.5212 55.6611 51.6355 55.6901 51.7383 55.7481C51.8468 55.8009 51.9011 55.8773 51.9011 55.9775C51.9011 56.0883 51.8696 56.17 51.8068 56.2227C51.744 56.2755 51.6726 56.3018 51.5927 56.3018C51.5184 56.3018 51.447 56.2887 51.3785 56.2623C51.3099 56.2307 51.2243 56.2148 51.1215 56.2148C50.9786 56.2148 50.8359 56.2517 50.6931 56.3256C50.556 56.3941 50.4275 56.4943 50.3076 56.6262C50.1933 56.758 50.0991 56.9083 50.0248 57.077C49.9563 57.2405 49.922 57.4172 49.922 57.607V59.5292C49.922 59.6188 49.8878 59.6953 49.8192 59.7586C49.7564 59.8218 49.6764 59.8535 49.5793 59.8535ZM53.3349 59.5292C53.3349 59.6188 53.3007 59.6953 53.2321 59.7586C53.1693 59.8218 53.0894 59.8535 52.9922 59.8535C52.8894 59.8535 52.8066 59.8218 52.7438 59.7586C52.6809 59.6953 52.6496 59.6188 52.6496 59.5292V56.0171C52.6496 55.9274 52.6809 55.8536 52.7438 55.7956C52.8123 55.7323 52.8951 55.7007 52.9922 55.7007C53.0894 55.7007 53.1693 55.7323 53.2321 55.7956C53.3007 55.8536 53.3349 55.9274 53.3349 56.0171V59.5292ZM52.9922 55.1707C52.8495 55.1707 52.7438 55.1443 52.6753 55.0916C52.6067 55.0389 52.5724 54.9571 52.5724 54.8464V54.7356C52.5724 54.6249 52.6096 54.5432 52.6838 54.4904C52.758 54.4377 52.8637 54.4113 53.0008 54.4113C53.1379 54.4113 53.2407 54.4377 53.3092 54.4904C53.3778 54.5432 53.412 54.6249 53.412 54.7356V54.8464C53.412 54.9571 53.3749 55.0389 53.3007 55.0916C53.2321 55.1443 53.1293 55.1707 52.9922 55.1707ZM58.7726 57.7969C58.7726 58.2082 58.6727 58.5747 58.4728 58.8964C58.2786 59.218 58.013 59.4712 57.676 59.6557C57.3448 59.8403 56.9707 59.9326 56.5537 59.9326C56.1368 59.9326 55.7598 59.8403 55.4228 59.6557C55.0859 59.4712 54.8174 59.218 54.6175 58.8964C54.4233 58.5747 54.3262 58.2082 54.3262 57.7969C54.3262 57.3855 54.4233 57.019 54.6175 56.6973C54.8174 56.3757 55.0859 56.1225 55.4228 55.938C55.7598 55.7534 56.1368 55.6611 56.5537 55.6611C56.9707 55.6611 57.3448 55.7534 57.676 55.938C58.013 56.1225 58.2786 56.3757 58.4728 56.6973C58.6727 57.019 58.7726 57.3855 58.7726 57.7969ZM58.0872 57.7969C58.0872 57.491 58.0187 57.2221 57.8816 56.99C57.7503 56.758 57.5675 56.5761 57.3333 56.4442C57.1049 56.3124 56.845 56.2465 56.5537 56.2465C56.2624 56.2465 55.9997 56.3124 55.7655 56.4442C55.5371 56.5761 55.3543 56.758 55.2172 56.99C55.0801 57.2221 55.0116 57.491 55.0116 57.7969C55.0116 58.0974 55.0801 58.3637 55.2172 58.5958C55.3543 58.8278 55.5371 59.0124 55.7655 59.1495C55.9997 59.2813 56.2624 59.3472 56.5537 59.3472C56.845 59.3472 57.1049 59.2813 57.3333 59.1495C57.5675 59.0124 57.7503 58.8278 57.8816 58.5958C58.0187 58.3637 58.0872 58.0974 58.0872 57.7969ZM65.8125 54C65.9097 54 65.9897 54.0316 66.0524 54.0949C66.121 54.1529 66.1552 54.2268 66.1552 54.3164V59.5292C66.1552 59.6188 66.121 59.6953 66.0524 59.7586C65.9897 59.8218 65.9097 59.8535 65.8125 59.8535C65.7097 59.8535 65.6269 59.8218 65.5641 59.7586C65.5013 59.6953 65.4699 59.6188 65.4699 59.5292V58.7777L65.6326 58.7223C65.6326 58.8489 65.5898 58.9834 65.5041 59.1258C65.4184 59.2629 65.3014 59.3921 65.1529 59.5133C65.0044 59.6346 64.8273 59.7348 64.6217 59.8139C64.4218 59.893 64.2048 59.9326 63.9706 59.9326C63.5879 59.9326 63.2395 59.8403 62.9254 59.6557C62.6169 59.4712 62.3714 59.218 62.1886 58.8964C62.0115 58.5747 61.923 58.2082 61.923 57.7969C61.923 57.3803 62.0115 57.0111 62.1886 56.6894C62.3714 56.3678 62.6169 56.1173 62.9254 55.938C63.2338 55.7534 63.5765 55.6611 63.9534 55.6611C64.1933 55.6611 64.419 55.698 64.6303 55.7719C64.8416 55.8457 65.0244 55.9459 65.1786 56.0724C65.3385 56.199 65.4642 56.3388 65.5555 56.4917C65.647 56.6446 65.6926 56.7975 65.6926 56.9505L65.4699 56.903V54.3164C65.4699 54.2268 65.5013 54.1529 65.5641 54.0949C65.6269 54.0316 65.7097 54 65.8125 54ZM64.0477 59.3472C64.3333 59.3472 64.5846 59.2813 64.8016 59.1495C65.0244 59.0124 65.1957 58.8278 65.3156 58.5958C65.4413 58.3585 65.5041 58.0922 65.5041 57.7969C65.5041 57.4963 65.4413 57.23 65.3156 56.9979C65.1957 56.7659 65.0244 56.584 64.8016 56.4521C64.5846 56.315 64.3333 56.2465 64.0477 56.2465C63.7678 56.2465 63.5165 56.315 63.2938 56.4521C63.0768 56.584 62.9054 56.7659 62.7797 56.9979C62.6541 57.23 62.5912 57.4963 62.5912 57.7969C62.5912 58.0869 62.6541 58.3506 62.7797 58.5879C62.9054 58.8199 63.0768 59.0045 63.2938 59.1416C63.5165 59.2787 63.7678 59.3472 64.0477 59.3472ZM69.4731 59.9326C69.0161 59.9326 68.6163 59.8429 68.2736 59.6636C67.9309 59.4843 67.6625 59.2391 67.4683 58.928C67.2798 58.6116 67.1856 58.2477 67.1856 57.8364C67.1856 57.3776 67.2826 56.9874 67.4769 56.6657C67.6767 56.3388 67.9337 56.0909 68.2479 55.9222C68.5677 55.7481 68.9047 55.6611 69.2589 55.6611C69.5216 55.6611 69.7757 55.7059 70.0214 55.7956C70.2669 55.8852 70.484 56.0171 70.6725 56.1911C70.861 56.3599 71.0123 56.5655 71.1265 56.8081C71.2407 57.0454 71.3007 57.3117 71.3065 57.607C71.3065 57.6914 71.2722 57.7626 71.2037 57.8206C71.1351 57.8786 71.0551 57.9076 70.9638 57.9076H67.5797L67.4255 57.3618H70.7239L70.5868 57.4725V57.2985C70.5639 57.0823 70.484 56.8977 70.3469 56.7448C70.2155 56.5866 70.0528 56.4653 69.8586 56.3809C69.6701 56.2966 69.4702 56.2544 69.2589 56.2544C69.0875 56.2544 68.9162 56.2834 68.7448 56.3414C68.5792 56.3941 68.4278 56.4838 68.2908 56.6103C68.1594 56.7316 68.0509 56.8898 67.9652 57.0849C67.8852 57.2801 67.8453 57.5147 67.8453 57.7889C67.8453 58.0948 67.9109 58.3637 68.0423 58.5958C68.1794 58.8278 68.3679 59.0124 68.6078 59.1495C68.8476 59.2813 69.1275 59.3472 69.4474 59.3472C69.6472 59.3472 69.8214 59.3235 69.97 59.276C70.1184 59.2286 70.2469 59.1706 70.3555 59.102C70.464 59.0282 70.5553 58.9544 70.6296 58.8805C70.7039 58.8331 70.7753 58.8093 70.8438 58.8093C70.9295 58.8093 70.998 58.8357 71.0494 58.8884C71.1065 58.9412 71.1351 59.0045 71.1351 59.0783C71.1351 59.1679 71.0894 59.247 70.998 59.3156C70.8381 59.4791 70.6211 59.6241 70.3469 59.7507C70.0728 59.8719 69.7815 59.9326 69.4731 59.9326ZM75.1671 59.8535C75.0643 59.8535 74.9786 59.8218 74.9101 59.7586C74.8473 59.6953 74.8159 59.6188 74.8159 59.5292V54.6328C74.8159 54.5432 74.8473 54.4693 74.9101 54.4113C74.9786 54.348 75.0615 54.3164 75.1586 54.3164H78.1657C78.2628 54.3164 78.3456 54.3454 78.4141 54.4034C78.4827 54.4614 78.517 54.5352 78.517 54.6249C78.517 54.7093 78.4827 54.7805 78.4141 54.8385C78.3456 54.8965 78.2628 54.9255 78.1657 54.9255H75.467L75.5184 54.8622V56.8002L75.4756 56.7132H77.7802C77.8773 56.7132 77.9601 56.7448 78.0286 56.8081C78.0972 56.8661 78.1314 56.9399 78.1314 57.0296C78.1314 57.1087 78.0972 57.1799 78.0286 57.2431C77.9601 57.3012 77.8773 57.3302 77.7802 57.3302H75.4584L75.5184 57.259V59.5292C75.5184 59.6188 75.4841 59.6953 75.4156 59.7586C75.347 59.8218 75.2643 59.8535 75.1671 59.8535ZM83.0225 55.7244C83.1196 55.7244 83.1995 55.756 83.2624 55.8193C83.3309 55.8773 83.3652 55.9512 83.3652 56.0408V59.5292C83.3652 59.6188 83.3309 59.6953 83.2624 59.7586C83.1995 59.8218 83.1196 59.8535 83.0225 59.8535C82.9197 59.8535 82.8369 59.8218 82.7741 59.7586C82.7112 59.6953 82.6798 59.6188 82.6798 59.5292V58.7777L82.8426 58.7619C82.8426 58.8779 82.7998 59.0045 82.7141 59.1416C82.6284 59.2787 82.5114 59.4079 82.3628 59.5292C82.2143 59.6452 82.0373 59.7427 81.8316 59.8218C81.6317 59.8957 81.4147 59.9326 81.1805 59.9326C80.7921 59.9326 80.4437 59.8403 80.1353 59.6557C79.8269 59.4659 79.5813 59.2101 79.3985 58.8884C79.2215 58.5668 79.1329 58.2003 79.1329 57.7889C79.1329 57.3723 79.2215 57.0058 79.3985 56.6894C79.5813 56.3678 79.8269 56.1173 80.1353 55.938C80.4437 55.7534 80.7864 55.6611 81.1634 55.6611C81.409 55.6611 81.6375 55.698 81.8488 55.7719C82.0601 55.8457 82.2429 55.9459 82.3971 56.0724C82.557 56.199 82.6798 56.3388 82.7655 56.4917C82.8569 56.6446 82.9026 56.7975 82.9026 56.9505L82.6798 56.903V56.0408C82.6798 55.9512 82.7112 55.8773 82.7741 55.8193C82.8369 55.756 82.9197 55.7244 83.0225 55.7244ZM81.2576 59.3472C81.5432 59.3472 81.7945 59.2787 82.0116 59.1416C82.2343 59.0045 82.4057 58.8199 82.5256 58.5879C82.6512 58.3506 82.7141 58.0843 82.7141 57.7889C82.7141 57.4989 82.6512 57.2379 82.5256 57.0058C82.4057 56.7685 82.2343 56.584 82.0116 56.4521C81.7945 56.315 81.5432 56.2465 81.2576 56.2465C80.9778 56.2465 80.7265 56.3124 80.5037 56.4442C80.2867 56.5761 80.1153 56.758 79.9897 56.99C79.8641 57.2221 79.8012 57.4884 79.8012 57.7889C79.8012 58.0843 79.8612 58.3506 79.9811 58.5879C80.1067 58.8199 80.2781 59.0045 80.4952 59.1416C80.7179 59.2787 80.972 59.3472 81.2576 59.3472ZM81.2576 55.4396C81.2177 55.4396 81.1749 55.4238 81.1291 55.3922C81.0892 55.3605 81.0692 55.3183 81.0692 55.2656C81.0692 55.2287 81.0863 55.1865 81.1206 55.1391L81.6346 54.3639C81.6689 54.3111 81.7146 54.261 81.7717 54.2136C81.8288 54.1661 81.8973 54.1424 81.9773 54.1424C82.0916 54.1424 82.1772 54.1714 82.2343 54.2294C82.2914 54.2821 82.32 54.3533 82.32 54.443C82.3143 54.4852 82.3029 54.5247 82.2857 54.5616C82.2686 54.5985 82.2429 54.6381 82.2086 54.6803L81.5575 55.3131C81.5175 55.3553 81.4689 55.3869 81.4118 55.408C81.3605 55.4291 81.309 55.4396 81.2576 55.4396ZM86.82 55.6611C87.2084 55.6611 87.5568 55.7534 87.8652 55.938C88.1737 56.1173 88.4164 56.3651 88.5935 56.6815C88.7763 56.9979 88.8676 57.3644 88.8676 57.781C88.8676 58.1976 88.7763 58.5668 88.5935 58.8884C88.4164 59.2101 88.1737 59.4659 87.8652 59.6557C87.5626 59.8403 87.2199 59.9326 86.8372 59.9326C86.6259 59.9326 86.4259 59.9036 86.2374 59.8456C86.0547 59.7823 85.8862 59.7006 85.732 59.6004C85.5835 59.4949 85.4578 59.3815 85.355 59.2602C85.2522 59.1337 85.178 59.0097 85.1323 58.8884L85.3207 58.7777V59.5687C85.3207 59.6584 85.2894 59.7348 85.2265 59.7981C85.1637 59.8614 85.0808 59.893 84.978 59.893C84.881 59.893 84.7981 59.864 84.7296 59.806C84.6668 59.7427 84.6353 59.6636 84.6353 59.5687V54.3243C84.6353 54.2347 84.6668 54.1582 84.7296 54.0949C84.7981 54.0316 84.881 54 84.978 54C85.0808 54 85.1637 54.0316 85.2265 54.0949C85.2894 54.1582 85.3207 54.2347 85.3207 54.3243V56.7606L85.1922 56.6973C85.2323 56.5655 85.3008 56.439 85.3978 56.3177C85.5006 56.1911 85.6235 56.0804 85.7662 55.9854C85.9148 55.8852 86.0775 55.8061 86.2546 55.7481C86.4374 55.6901 86.6258 55.6611 86.82 55.6611ZM86.7429 56.2465C86.4574 56.2465 86.2032 56.3124 85.9804 56.4442C85.7634 56.5761 85.5921 56.758 85.4664 56.99C85.3464 57.2221 85.2865 57.4857 85.2865 57.781C85.2865 58.0763 85.3464 58.3427 85.4664 58.58C85.5921 58.8173 85.7634 59.0045 85.9804 59.1416C86.2032 59.2787 86.4574 59.3472 86.7429 59.3472C87.0285 59.3472 87.2799 59.2787 87.4968 59.1416C87.7139 59.0045 87.8852 58.8173 88.0109 58.58C88.1366 58.3427 88.1994 58.0763 88.1994 57.781C88.1994 57.4857 88.1366 57.2221 88.0109 56.99C87.8852 56.758 87.7139 56.5761 87.4968 56.4442C87.2799 56.3124 87.0285 56.2465 86.7429 56.2465ZM90.2407 59.8535C90.1434 59.8535 90.0608 59.8218 89.9923 59.7586C89.9292 59.6953 89.898 59.6188 89.898 59.5292V56.0804C89.898 55.9907 89.9292 55.9169 89.9923 55.8589C90.0608 55.7956 90.1434 55.764 90.2407 55.764C90.3435 55.764 90.4261 55.7956 90.4892 55.8589C90.5523 55.9169 90.5834 55.9907 90.5834 56.0804V57.1245L90.4806 56.9584C90.5149 56.7949 90.5748 56.6367 90.6605 56.4838C90.7516 56.3256 90.8661 56.1858 91.0032 56.0645C91.1403 55.938 91.2976 55.8404 91.4744 55.7719C91.6512 55.698 91.8459 55.6611 92.057 55.6611C92.1824 55.6611 92.2969 55.6901 92.3997 55.7481C92.5079 55.8009 92.5625 55.8773 92.5625 55.9775C92.5625 56.0883 92.5313 56.17 92.4682 56.2227C92.4051 56.2755 92.3343 56.3018 92.254 56.3018C92.18 56.3018 92.1084 56.2887 92.0399 56.2623C91.9713 56.2307 91.8856 56.2148 91.7828 56.2148C91.6403 56.2148 91.497 56.2517 91.3545 56.3256C91.2174 56.3941 91.0889 56.4943 90.9689 56.6262C90.8545 56.758 90.7602 56.9083 90.6862 57.077C90.6177 57.2405 90.5834 57.4172 90.5834 57.607V59.5292C90.5834 59.6188 90.5491 59.6953 90.4806 59.7586C90.4175 59.8218 90.3381 59.8535 90.2407 59.8535ZM93.9963 59.5292C93.9963 59.6188 93.9621 59.6953 93.8935 59.7586C93.8304 59.8218 93.751 59.8535 93.6536 59.8535C93.5508 59.8535 93.4683 59.8218 93.4052 59.7586C93.3421 59.6953 93.3109 59.6188 93.3109 59.5292V56.0171C93.3109 55.9274 93.3421 55.8536 93.4052 55.7956C93.4737 55.7323 93.5563 55.7007 93.6536 55.7007C93.751 55.7007 93.8304 55.7323 93.8935 55.7956C93.9621 55.8536 93.9963 55.9274 93.9963 56.0171V59.5292ZM93.6536 55.1707C93.5111 55.1707 93.4052 55.1443 93.3366 55.0916C93.2681 55.0389 93.2338 54.9571 93.2338 54.8464V54.7356C93.2338 54.6249 93.2712 54.5432 93.3452 54.4904C93.4192 54.4377 93.5251 54.4113 93.6622 54.4113C93.7993 54.4113 93.9021 54.4377 93.9706 54.4904C94.0392 54.5432 94.0734 54.6249 94.0734 54.7356V54.8464C94.0734 54.9571 94.036 55.0389 93.9621 55.0916C93.8935 55.1443 93.7907 55.1707 93.6536 55.1707ZM97.1982 55.6611C97.4895 55.6611 97.7519 55.6901 97.9864 55.7481C98.22 55.8061 98.4062 55.8852 98.5432 55.9854C98.6803 56.0856 98.7488 56.199 98.7488 56.3256C98.7488 56.3941 98.7232 56.46 98.6717 56.5233C98.6203 56.5866 98.5518 56.6182 98.4661 56.6182C98.3859 56.6182 98.3205 56.6051 98.2691 56.5787C98.2231 56.5523 98.1772 56.5181 98.132 56.4759C98.0915 56.4337 98.0346 56.3968 97.9607 56.3651C97.8921 56.3282 97.7916 56.2992 97.6608 56.2781C97.5292 56.257 97.3976 56.2465 97.2667 56.2465C96.952 56.2465 96.6756 56.315 96.4357 56.4521C96.2012 56.5892 96.0159 56.7738 95.8788 57.0058C95.7417 57.2379 95.6732 57.5015 95.6732 57.7969C95.6732 58.0922 95.7386 58.3558 95.8702 58.5879C96.0011 58.8199 96.1841 59.0045 96.4185 59.1416C96.6522 59.2787 96.924 59.3472 97.2324 59.3472C97.4318 59.3472 97.5923 59.3314 97.7122 59.2998C97.8321 59.2681 97.9318 59.2312 98.0121 59.189C98.1149 59.1363 98.192 59.0836 98.2434 59.0308C98.3002 58.9781 98.3742 58.9517 98.4661 58.9517C98.5627 58.9517 98.6375 58.9807 98.6889 59.0387C98.7457 59.0968 98.7746 59.1679 98.7746 59.2523C98.7746 59.3472 98.7029 59.4474 98.5604 59.5529C98.4171 59.6584 98.2231 59.748 97.9778 59.8218C97.7379 59.8957 97.4638 59.9326 97.1553 59.9326C96.7207 59.9326 96.3414 59.8403 96.0159 59.6557C95.6903 59.4659 95.4356 59.2101 95.2534 58.8884C95.0758 58.5615 94.9878 58.1976 94.9878 57.7969C94.9878 57.3961 95.0789 57.0348 95.262 56.7132C95.4504 56.3915 95.7098 56.1357 96.0416 55.9459C96.3726 55.756 96.7581 55.6611 97.1982 55.6611ZM103.32 55.7244C103.416 55.7244 103.497 55.756 103.56 55.8193C103.628 55.8773 103.663 55.9512 103.663 56.0408V59.5292C103.663 59.6188 103.628 59.6953 103.56 59.7586C103.497 59.8218 103.416 59.8535 103.32 59.8535C103.217 59.8535 103.134 59.8218 103.071 59.7586C103.008 59.6953 102.977 59.6188 102.977 59.5292V58.7777L103.14 58.7619C103.14 58.8779 103.097 59.0045 103.011 59.1416C102.926 59.2787 102.808 59.4079 102.66 59.5292C102.511 59.6452 102.335 59.7427 102.129 59.8218C101.929 59.8957 101.712 59.9326 101.478 59.9326C101.089 59.9326 100.741 59.8403 100.433 59.6557C100.124 59.4659 99.8782 59.2101 99.6959 58.8884C99.5183 58.5668 99.4303 58.2003 99.4303 57.7889C99.4303 57.3723 99.5183 57.0058 99.6959 56.6894C99.8782 56.3678 100.124 56.1173 100.433 55.938C100.741 55.7534 101.084 55.6611 101.461 55.6611C101.706 55.6611 101.934 55.698 102.146 55.7719C102.357 55.8457 102.54 55.9459 102.694 56.0724C102.854 56.199 102.977 56.3388 103.063 56.4917C103.154 56.6446 103.2 56.7975 103.2 56.9505L102.977 56.903V56.0408C102.977 55.9512 103.008 55.8773 103.071 55.8193C103.134 55.756 103.217 55.7244 103.32 55.7244ZM101.555 59.3472C101.84 59.3472 102.092 59.2787 102.309 59.1416C102.532 59.0045 102.703 58.8199 102.823 58.5879C102.948 58.3506 103.011 58.0843 103.011 57.7889C103.011 57.4989 102.948 57.2379 102.823 57.0058C102.703 56.7685 102.532 56.584 102.309 56.4521C102.092 56.315 101.84 56.2465 101.555 56.2465C101.275 56.2465 101.024 56.3124 100.801 56.4442C100.584 56.5761 100.412 56.758 100.287 56.99C100.161 57.2221 100.099 57.4884 100.099 57.7889C100.099 58.0843 100.159 58.3506 100.279 58.5879C100.404 58.8199 100.575 59.0045 100.793 59.1416C101.015 59.2787 101.269 59.3472 101.555 59.3472ZM104.684 59.2049C104.633 59.1363 104.61 59.0651 104.616 58.9913C104.621 58.9122 104.67 58.8436 104.762 58.7856C104.818 58.7487 104.884 58.7329 104.959 58.7382C105.038 58.7434 105.11 58.7777 105.173 58.841C105.332 59.015 105.515 59.1548 105.721 59.2602C105.927 59.3604 106.177 59.4105 106.475 59.4105C106.612 59.4052 106.749 59.3841 106.886 59.3472C107.023 59.3103 107.137 59.247 107.229 59.1574C107.326 59.0625 107.375 58.9385 107.375 58.7856C107.375 58.638 107.326 58.5219 107.229 58.4376C107.132 58.3479 107.006 58.2767 106.852 58.224C106.698 58.166 106.529 58.1159 106.347 58.0737C106.158 58.0262 105.972 57.9735 105.79 57.9155C105.607 57.8522 105.441 57.7758 105.293 57.6861C105.149 57.5912 105.033 57.4752 104.941 57.3381C104.856 57.1957 104.813 57.0243 104.813 56.8239C104.813 56.5866 104.881 56.3809 105.019 56.2069C105.161 56.0329 105.35 55.8984 105.584 55.8035C105.824 55.7086 106.083 55.6611 106.364 55.6611C106.523 55.6611 106.689 55.6796 106.861 55.7165C107.037 55.7481 107.209 55.8061 107.375 55.8905C107.54 55.9696 107.685 56.0804 107.812 56.2227C107.863 56.2755 107.891 56.3414 107.897 56.4205C107.903 56.4996 107.865 56.5708 107.786 56.6341C107.723 56.6763 107.651 56.6947 107.572 56.6894C107.497 56.6842 107.435 56.6578 107.383 56.6103C107.263 56.4785 107.111 56.3783 106.929 56.3098C106.752 56.2359 106.554 56.199 106.338 56.199C106.201 56.199 106.066 56.2175 105.935 56.2544C105.804 56.2913 105.692 56.3546 105.601 56.4442C105.515 56.5286 105.473 56.6472 105.473 56.8002C105.478 56.9426 105.53 57.0586 105.627 57.1482C105.723 57.2379 105.855 57.3117 106.021 57.3697C106.186 57.4224 106.369 57.4752 106.569 57.5279C106.752 57.5701 106.926 57.6202 107.092 57.6782C107.263 57.7309 107.417 57.8021 107.555 57.8918C107.692 57.9814 107.8 58.0974 107.88 58.2398C107.96 58.3769 108 58.551 108 58.7619C108 59.0045 107.925 59.2154 107.777 59.3947C107.628 59.5687 107.431 59.7032 107.186 59.7981C106.946 59.8878 106.686 59.9326 106.406 59.9326C106.092 59.9326 105.781 59.8772 105.473 59.7665C105.17 59.6557 104.907 59.4685 104.684 59.2049ZM39.3785 64.0674C39.4757 64.0674 39.5556 64.0991 39.6184 64.1623C39.687 64.2204 39.7212 64.2941 39.7212 64.3838V69.5966C39.7212 69.6863 39.687 69.7627 39.6184 69.826C39.5556 69.8893 39.4757 69.9209 39.3785 69.9209C39.2757 69.9209 39.1929 69.8893 39.1301 69.826C39.0672 69.7627 39.0358 69.6863 39.0358 69.5966V68.8451L39.1986 68.7898C39.1986 68.9163 39.1558 69.0508 39.0701 69.1932C38.9844 69.3303 38.8674 69.4595 38.7188 69.5808C38.5703 69.7021 38.3933 69.8022 38.1877 69.8813C37.9877 69.9604 37.7708 70 37.5366 70C37.1539 70 36.8055 69.9077 36.4913 69.7231C36.1829 69.5386 35.9374 69.2854 35.7546 68.9638C35.5775 68.6421 35.489 68.2756 35.489 67.8643C35.489 67.4477 35.5775 67.0785 35.7546 66.7569C35.9374 66.4352 36.1829 66.1847 36.4913 66.0054C36.7998 65.8208 37.1425 65.7285 37.5194 65.7285C37.7593 65.7285 37.9849 65.7654 38.1962 65.8393C38.4075 65.9131 38.5903 66.0133 38.7446 66.1399C38.9045 66.2664 39.0302 66.4061 39.1215 66.5591C39.2129 66.7121 39.2586 66.8649 39.2586 67.0179L39.0358 66.9704V64.3838C39.0358 64.2941 39.0672 64.2204 39.1301 64.1623C39.1929 64.0991 39.2757 64.0674 39.3785 64.0674ZM37.6137 69.4147C37.8993 69.4147 38.1505 69.3487 38.3676 69.2169C38.5903 69.0798 38.7617 68.8952 38.8816 68.6632C39.0073 68.4259 39.0701 68.1596 39.0701 67.8643C39.0701 67.5637 39.0073 67.2974 38.8816 67.0653C38.7617 66.8333 38.5903 66.6514 38.3676 66.5196C38.1505 66.3824 37.8993 66.3139 37.6137 66.3139C37.3338 66.3139 37.0825 66.3824 36.8597 66.5196C36.6427 66.6514 36.4713 66.8333 36.3457 67.0653C36.2201 67.2974 36.1572 67.5637 36.1572 67.8643C36.1572 68.1543 36.2201 68.418 36.3457 68.6553C36.4713 68.8873 36.6427 69.0719 36.8597 69.209C37.0825 69.3461 37.3338 69.4147 37.6137 69.4147ZM43.039 70C42.5821 70 42.1822 69.9103 41.8395 69.7311C41.4968 69.5518 41.2285 69.3066 41.0342 68.9954C40.8457 68.679 40.7515 68.3151 40.7515 67.9038C40.7515 67.445 40.8486 67.0548 41.0428 66.7331C41.2427 66.4061 41.4997 66.1583 41.8138 65.9896C42.1337 65.8156 42.4707 65.7285 42.8248 65.7285C43.0876 65.7285 43.3417 65.7733 43.5873 65.863C43.8329 65.9527 44.0499 66.0845 44.2384 66.2585C44.4269 66.4273 44.5783 66.633 44.6925 66.8755C44.8067 67.1128 44.8667 67.3791 44.8724 67.6744C44.8724 67.7588 44.8381 67.83 44.7696 67.888C44.701 67.946 44.6211 67.975 44.5297 67.975H41.1456L40.9914 67.4292H44.2898L44.1527 67.54V67.3659C44.1299 67.1497 44.0499 66.9652 43.9128 66.8122C43.7815 66.654 43.6187 66.5327 43.4245 66.4484C43.236 66.364 43.0362 66.3218 42.8248 66.3218C42.6534 66.3218 42.4821 66.3508 42.3107 66.4088C42.1452 66.4615 41.9937 66.5512 41.8567 66.6778C41.7254 66.7991 41.6168 66.9573 41.5311 67.1524C41.4512 67.3475 41.4112 67.5822 41.4112 67.8564C41.4112 68.1622 41.4769 68.4311 41.6082 68.6632C41.7453 68.8952 41.9338 69.0798 42.1737 69.2169C42.4135 69.3487 42.6935 69.4147 43.0133 69.4147C43.2132 69.4147 43.3874 69.3909 43.5359 69.3435C43.6844 69.296 43.8129 69.238 43.9214 69.1694C44.03 69.0956 44.1213 69.0218 44.1955 68.948C44.2699 68.9005 44.3412 68.8768 44.4097 68.8768C44.4954 68.8768 44.5639 68.9032 44.6153 68.9559C44.6725 69.0086 44.701 69.0719 44.701 69.1457C44.701 69.2354 44.6554 69.3145 44.5639 69.383C44.404 69.5465 44.187 69.6915 43.9128 69.8181C43.6387 69.9394 43.3474 70 43.039 70ZM50.1296 70C49.7069 70 49.3357 69.942 49.0158 69.826C48.696 69.71 48.3875 69.5254 48.0906 69.2723C48.0506 69.2354 48.0163 69.1958 47.9878 69.1536C47.9649 69.1062 47.9535 69.056 47.9535 69.0033C47.9535 68.919 47.9849 68.8451 48.0477 68.7818C48.1163 68.7133 48.1991 68.679 48.2962 68.679C48.3762 68.679 48.4475 68.708 48.5104 68.766C48.7331 68.9664 48.973 69.1193 49.23 69.2248C49.4927 69.3303 49.7869 69.383 50.1125 69.383C50.3638 69.383 50.5893 69.3461 50.7893 69.2723C50.9949 69.1984 51.1577 69.0956 51.2776 68.9638C51.3976 68.832 51.4575 68.679 51.4575 68.505C51.4518 68.2941 51.3833 68.1201 51.2519 67.9829C51.1263 67.8458 50.9492 67.7325 50.7207 67.6428C50.498 67.5479 50.2381 67.4688 49.9411 67.4055C49.6784 67.3475 49.4356 67.2763 49.2129 67.1919C48.9958 67.1076 48.8073 67.0047 48.6474 66.8834C48.4875 66.7569 48.3618 66.6066 48.2705 66.4325C48.1848 66.2533 48.142 66.0449 48.142 65.8076C48.142 65.5071 48.2276 65.2434 48.399 65.0166C48.5703 64.7899 48.8073 64.6159 49.1101 64.4946C49.4128 64.368 49.7612 64.3047 50.1553 64.3047C50.5037 64.3047 50.8321 64.3574 51.1405 64.4629C51.4546 64.5684 51.706 64.7134 51.8945 64.898C52.0087 64.9981 52.0658 65.0957 52.0658 65.1907C52.0658 65.2698 52.0287 65.3436 51.9544 65.4121C51.8859 65.4754 51.8059 65.5071 51.7145 65.5071C51.6517 65.5071 51.5946 65.486 51.5432 65.4438C51.4461 65.3436 51.3233 65.2539 51.1748 65.1748C51.0263 65.0957 50.8635 65.0324 50.6865 64.985C50.5094 64.9375 50.3323 64.9138 50.1553 64.9138C49.8926 64.9138 49.6613 64.9507 49.4613 65.0245C49.2614 65.0931 49.1044 65.1933 48.9901 65.3251C48.8816 65.4517 48.8274 65.6046 48.8274 65.7839C48.8274 65.9843 48.8902 66.1504 49.0158 66.2822C49.1415 66.4088 49.31 66.5143 49.5213 66.5987C49.7326 66.6778 49.9668 66.7489 50.2238 66.8122C50.5037 66.8755 50.7607 66.9494 50.9949 67.0337C51.2348 67.1128 51.4404 67.213 51.6117 67.3343C51.7831 67.4556 51.9145 67.6111 52.0058 67.801C52.103 67.9856 52.1515 68.215 52.1515 68.4892C52.1515 68.7792 52.0629 69.0376 51.8859 69.2644C51.7089 69.4911 51.4661 69.6704 51.1577 69.8022C50.8549 69.9288 50.5122 69.9948 50.1296 70ZM57.388 67.8643C57.388 68.2756 57.2881 68.6421 57.0881 68.9638C56.894 69.2854 56.6284 69.5386 56.2914 69.7231C55.9601 69.9077 55.586 70 55.169 70C54.7521 70 54.3752 69.9077 54.0382 69.7231C53.7012 69.5386 53.4328 69.2854 53.2328 68.9638C53.0387 68.6421 52.9415 68.2756 52.9415 67.8643C52.9415 67.4529 53.0387 67.0864 53.2328 66.7648C53.4328 66.4431 53.7012 66.19 54.0382 66.0054C54.3752 65.8208 54.7521 65.7285 55.169 65.7285C55.586 65.7285 55.9601 65.8208 56.2914 66.0054C56.6284 66.19 56.894 66.4431 57.0881 66.7648C57.2881 67.0864 57.388 67.4529 57.388 67.8643ZM56.7026 67.8643C56.7026 67.5584 56.6341 67.2895 56.497 67.0574C56.3656 66.8254 56.1829 66.6435 55.9487 66.5116C55.7202 66.3798 55.4603 66.3139 55.169 66.3139C54.8778 66.3139 54.6151 66.3798 54.3809 66.5116C54.1524 66.6435 53.9696 66.8254 53.8325 67.0574C53.6955 67.2895 53.6269 67.5584 53.6269 67.8643C53.6269 68.1649 53.6955 68.4311 53.8325 68.6632C53.9696 68.8952 54.1524 69.0798 54.3809 69.2169C54.6151 69.3487 54.8778 69.4147 55.169 69.4147C55.4603 69.4147 55.7202 69.3487 55.9487 69.2169C56.1829 69.0798 56.3656 68.8952 56.497 68.6632C56.6341 68.4311 56.7026 68.1649 56.7026 67.8643ZM60.2694 64.0832C60.3665 64.0832 60.4665 64.0938 60.5693 64.1149C60.6778 64.1359 60.7692 64.1729 60.8434 64.2256C60.9234 64.2783 60.9634 64.3495 60.9634 64.4392C60.9634 64.5235 60.9348 64.5947 60.8777 64.6528C60.8206 64.7055 60.7521 64.7319 60.6721 64.7319C60.6207 64.7319 60.5493 64.7187 60.4579 64.6923C60.3665 64.6607 60.2723 64.6449 60.1752 64.6449C60.0438 64.6449 59.9353 64.6712 59.8496 64.724C59.7696 64.7767 59.7097 64.8479 59.6697 64.9375C59.6354 65.0219 59.6183 65.1168 59.6183 65.2223V69.5966C59.6183 69.6863 59.584 69.7627 59.5155 69.826C59.4526 69.8893 59.3727 69.9209 59.2756 69.9209C59.1728 69.9209 59.09 69.8893 59.0271 69.826C58.9643 69.7627 58.9329 69.6863 58.9329 69.5966V65.2302C58.9329 64.8769 59.05 64.5974 59.2842 64.3917C59.5241 64.1861 59.8525 64.0832 60.2694 64.0832ZM60.5093 65.8947C60.6007 65.8947 60.6778 65.9236 60.7406 65.9817C60.8035 66.0344 60.8349 66.103 60.8349 66.1873C60.8349 66.2717 60.8035 66.3429 60.7406 66.4009C60.6778 66.4536 60.6007 66.48 60.5093 66.48H58.3589C58.2675 66.48 58.1904 66.451 58.1276 66.393C58.0647 66.335 58.0333 66.2664 58.0333 66.1873C58.0333 66.0977 58.0647 66.0265 58.1276 65.9738C58.1904 65.921 58.2675 65.8947 58.3589 65.8947H60.5093ZM61.5774 65.8551H63.5907C63.6821 65.8551 63.7564 65.8841 63.8135 65.9421C63.8763 66.0001 63.9077 66.0687 63.9077 66.1478C63.9077 66.2321 63.8763 66.3033 63.8135 66.3613C63.7564 66.4141 63.6821 66.4404 63.5907 66.4404H61.5774C61.4917 66.4404 61.4175 66.4115 61.3547 66.3534C61.2918 66.2954 61.2604 66.2242 61.2604 66.1399C61.2604 66.0608 61.2918 65.9948 61.3547 65.9421C61.4175 65.8841 61.4917 65.8551 61.5774 65.8551ZM62.477 64.7793C62.5741 64.7793 62.654 64.811 62.7169 64.8742C62.7797 64.9323 62.8111 65.0061 62.8111 65.0957V68.9163C62.8111 69.0429 62.8311 69.1378 62.8711 69.2011C62.911 69.2644 62.9624 69.3092 63.0253 69.3356C63.0938 69.3566 63.1595 69.3672 63.2223 69.3672C63.2794 69.3672 63.328 69.3593 63.368 69.3435C63.4137 69.3224 63.4651 69.3118 63.5222 69.3118C63.5793 69.3118 63.6307 69.3382 63.6764 69.3909C63.7278 69.4384 63.7535 69.5017 63.7535 69.5808C63.7535 69.6757 63.6935 69.7574 63.5736 69.826C63.4537 69.8893 63.3195 69.9209 63.1709 69.9209C63.0909 69.9209 62.991 69.9156 62.8711 69.9051C62.7568 69.8945 62.6426 69.8603 62.5284 69.8022C62.4141 69.7442 62.3171 69.6493 62.2371 69.5175C62.1629 69.3804 62.1257 69.1905 62.1257 68.948V65.0957C62.1257 65.0061 62.16 64.9323 62.2285 64.8742C62.2971 64.811 62.3799 64.7793 62.477 64.7793ZM70.4302 65.7602C70.5216 65.7602 70.5987 65.7892 70.6615 65.8472C70.73 65.9052 70.7643 65.9817 70.7643 66.0766C70.7643 66.0977 70.7615 66.1214 70.7557 66.1478C70.7557 66.1688 70.7501 66.19 70.7386 66.2111L69.4192 69.7152C69.3907 69.7838 69.3421 69.8365 69.2736 69.8734C69.2108 69.9103 69.1423 69.9261 69.068 69.9209C68.9367 69.9156 68.8367 69.847 68.7681 69.7152L67.6886 67.2156L67.86 67.2394L66.8833 69.7152C66.8205 69.847 66.7205 69.9156 66.5835 69.9209C66.5092 69.9261 66.4378 69.9103 66.3693 69.8734C66.3007 69.8365 66.2551 69.7838 66.2322 69.7152L64.8871 66.2111C64.87 66.1636 64.8614 66.1188 64.8614 66.0766C64.8614 65.9922 64.8929 65.9184 64.9557 65.8551C65.0185 65.7918 65.1042 65.7602 65.2127 65.7602C65.2812 65.7602 65.3441 65.776 65.4012 65.8076C65.4583 65.8393 65.4983 65.8894 65.5211 65.9579L66.6777 69.0745L66.4978 69.0666L67.5002 66.6936C67.5573 66.5618 67.6629 66.4958 67.8171 66.4958C67.8971 66.4958 67.96 66.5143 68.0056 66.5512C68.057 66.5828 68.0942 66.6303 68.117 66.6936L69.1622 69.0666L68.948 69.0824L70.1046 65.9579C70.156 65.8261 70.2646 65.7602 70.4302 65.7602ZM75.3713 65.7918C75.4684 65.7918 75.5484 65.8235 75.6112 65.8867C75.6798 65.9448 75.714 66.0186 75.714 66.1082V69.5966C75.714 69.6863 75.6798 69.7627 75.6112 69.826C75.5484 69.8893 75.4684 69.9209 75.3713 69.9209C75.2685 69.9209 75.1857 69.8893 75.1229 69.826C75.06 69.7627 75.0287 69.6863 75.0287 69.5966V68.8451L75.1914 68.8293C75.1914 68.9453 75.1486 69.0719 75.0629 69.209C74.9772 69.3461 74.8601 69.4753 74.7117 69.5966C74.5631 69.7126 74.3861 69.8102 74.1805 69.8893C73.9806 69.9631 73.7635 70 73.5294 70C73.141 70 72.7926 69.9077 72.4842 69.7231C72.1757 69.5333 71.9301 69.2775 71.7474 68.9559C71.5703 68.6342 71.4818 68.2677 71.4818 67.8564C71.4818 67.4398 71.5703 67.0733 71.7474 66.7569C71.9301 66.4352 72.1757 66.1847 72.4842 66.0054C72.7926 65.8208 73.1353 65.7285 73.5122 65.7285C73.7578 65.7285 73.9862 65.7654 74.1976 65.8393C74.4089 65.9131 74.5917 66.0133 74.7459 66.1399C74.9058 66.2664 75.0287 66.4061 75.1143 66.5591C75.2057 66.7121 75.2514 66.8649 75.2514 67.0179L75.0287 66.9704V66.1082C75.0287 66.0186 75.06 65.9448 75.1229 65.8867C75.1857 65.8235 75.2685 65.7918 75.3713 65.7918ZM73.6065 69.4147C73.892 69.4147 74.1433 69.3461 74.3604 69.209C74.5832 69.0719 74.7545 68.8873 74.8744 68.6553C75.0001 68.418 75.0629 68.1517 75.0629 67.8564C75.0629 67.5663 75.0001 67.3053 74.8744 67.0733C74.7545 66.836 74.5832 66.6514 74.3604 66.5196C74.1433 66.3824 73.892 66.3139 73.6065 66.3139C73.3266 66.3139 73.0753 66.3798 72.8526 66.5116C72.6355 66.6435 72.4641 66.8254 72.3385 67.0574C72.2128 67.2895 72.15 67.5558 72.15 67.8564C72.15 68.1517 72.21 68.418 72.3299 68.6553C72.4556 68.8873 72.6269 69.0719 72.844 69.209C73.0667 69.3461 73.3209 69.4147 73.6065 69.4147ZM77.3269 69.9209C77.2298 69.9209 77.147 69.8893 77.0784 69.826C77.0156 69.7627 76.9842 69.6863 76.9842 69.5966V66.1478C76.9842 66.0581 77.0156 65.9843 77.0784 65.9263C77.147 65.863 77.2298 65.8314 77.3269 65.8314C77.4297 65.8314 77.5126 65.863 77.5753 65.9263C77.6382 65.9843 77.6696 66.0581 77.6696 66.1478V67.1919L77.5668 67.0258C77.601 66.8623 77.661 66.7041 77.7467 66.5512C77.8381 66.393 77.9523 66.2533 78.0894 66.132C78.2264 66.0054 78.3835 65.9078 78.5606 65.8393C78.7377 65.7654 78.9318 65.7285 79.1432 65.7285C79.2689 65.7285 79.383 65.7575 79.4858 65.8156C79.5944 65.8683 79.6486 65.9448 79.6486 66.0449C79.6486 66.1557 79.6172 66.2374 79.5544 66.2902C79.4916 66.3429 79.4202 66.3693 79.3402 66.3693C79.266 66.3693 79.1945 66.3561 79.126 66.3297C79.0575 66.2981 78.9718 66.2822 78.869 66.2822C78.7262 66.2822 78.5835 66.3191 78.4406 66.393C78.3036 66.4615 78.175 66.5618 78.0551 66.6936C77.9409 66.8254 77.8467 66.9757 77.7724 67.1444C77.7038 67.3079 77.6696 67.4846 77.6696 67.6744V69.5966C77.6696 69.6863 77.6353 69.7627 77.5668 69.826C77.504 69.8893 77.424 69.9209 77.3269 69.9209ZM82.278 70C81.8211 70 81.4213 69.9103 81.0786 69.7311C80.7359 69.5518 80.4674 69.3066 80.2733 68.9954C80.0848 68.679 79.9905 68.3151 79.9905 67.9038C79.9905 67.445 80.0877 67.0548 80.2818 66.7331C80.4818 66.4061 80.7388 66.1583 81.0529 65.9896C81.3728 65.8156 81.7097 65.7285 82.0638 65.7285C82.3265 65.7285 82.5807 65.7733 82.8263 65.863C83.0719 65.9527 83.289 66.0845 83.4774 66.2585C83.6659 66.4273 83.8172 66.633 83.9315 66.8755C84.0458 67.1128 84.1057 67.3791 84.1114 67.6744C84.1114 67.7588 84.0772 67.83 84.0086 67.888C83.9401 67.946 83.8601 67.975 83.7687 67.975H80.3846L80.2304 67.4292H83.5288L83.3918 67.54V67.3659C83.3689 67.1497 83.289 66.9652 83.1519 66.8122C83.0205 66.654 82.8577 66.5327 82.6635 66.4484C82.4751 66.364 82.2751 66.3218 82.0638 66.3218C81.8925 66.3218 81.7211 66.3508 81.5498 66.4088C81.3841 66.4615 81.2328 66.5512 81.0957 66.6778C80.9643 66.7991 80.8558 66.9573 80.7702 67.1524C80.6902 67.3475 80.6502 67.5822 80.6502 67.8564C80.6502 68.1622 80.7159 68.4311 80.8473 68.6632C80.9843 68.8952 81.1728 69.0798 81.4127 69.2169C81.6526 69.3487 81.9324 69.4147 82.2523 69.4147C82.4522 69.4147 82.6264 69.3909 82.7749 69.3435C82.9234 69.296 83.0519 69.238 83.1604 69.1694C83.2689 69.0956 83.3604 69.0218 83.4346 68.948C83.5088 68.9005 83.5802 68.8768 83.6488 68.8768C83.7345 68.8768 83.803 68.9032 83.8544 68.9559C83.9115 69.0086 83.9401 69.0719 83.9401 69.1457C83.9401 69.2354 83.8944 69.3145 83.803 69.383C83.6431 69.5465 83.426 69.6915 83.1519 69.8181C82.8777 69.9394 82.5864 70 82.278 70Z" fill="white"/>
</g>
<rect width="120" height="46" rx="5" fill="black"/>
<g filter="url(#filter1_d_686_2530)">
<path d="M29.4119 30.7867C28.9935 30.7867 28.6499 30.6658 28.381 30.424C28.1269 30.168 28 29.8551 28 29.4853V17.1547C28 16.7849 28.1269 16.4791 28.381 16.2373C28.6499 15.9813 28.9785 15.8533 29.3671 15.8533H36.6505C37.0389 15.8533 37.3601 15.9742 37.6142 16.216C37.8831 16.4436 38.0176 16.7422 38.0176 17.112C38.0176 17.4249 37.8831 17.7022 37.6142 17.944C37.3601 18.1858 37.0389 18.3067 36.6505 18.3067H30.5996L30.8013 18.0507V22.3387L30.6445 22.0613H35.642C36.0305 22.0613 36.3517 22.1822 36.6057 22.424C36.8746 22.6516 37.0091 22.9502 37.0091 23.32C37.0091 23.6329 36.8746 23.9102 36.6057 24.152C36.3517 24.3938 36.0305 24.5147 35.642 24.5147H30.5996L30.8013 24.3227V29.4853C30.8013 29.8551 30.6593 30.168 30.3755 30.424C30.1066 30.6658 29.7853 30.7867 29.4119 30.7867ZM45.5171 31C44.4712 31 43.53 30.8791 42.6933 30.6373C41.8567 30.3813 41.0573 29.9404 40.2954 29.3147C40.1011 29.1582 39.9518 28.9804 39.8472 28.7813C39.7426 28.5822 39.6903 28.3831 39.6903 28.184C39.6903 27.8569 39.8098 27.5724 40.0489 27.3307C40.3028 27.0747 40.6166 26.9467 40.9901 26.9467C41.274 26.9467 41.528 27.032 41.7521 27.2027C42.3198 27.6436 42.88 27.9778 43.4329 28.2053C44.0006 28.4329 44.6953 28.5467 45.5171 28.5467C46.0699 28.5467 46.5778 28.4684 47.041 28.312C47.5042 28.1413 47.8776 27.9209 48.1615 27.6507C48.4454 27.3662 48.5873 27.0462 48.5873 26.6907C48.5873 26.264 48.4529 25.9013 48.1839 25.6027C47.915 25.304 47.5042 25.0551 46.9513 24.856C46.3985 24.6427 45.6963 24.4791 44.8447 24.3653C44.038 24.2516 43.3283 24.0809 42.7157 23.8533C42.1032 23.6116 41.5878 23.3129 41.1694 22.9573C40.766 22.5876 40.4597 22.1609 40.2506 21.6773C40.0414 21.1796 39.9368 20.6249 39.9368 20.0133C39.9368 19.0889 40.1833 18.2996 40.6764 17.6453C41.1844 16.9911 41.8641 16.4933 42.7157 16.152C43.5673 15.8107 44.5086 15.64 45.5395 15.64C46.5106 15.64 47.407 15.7822 48.2288 16.0667C49.0654 16.3369 49.7452 16.6853 50.2681 17.112C50.7014 17.4391 50.918 17.816 50.918 18.2427C50.918 18.5556 50.791 18.84 50.5371 19.096C50.2831 19.352 49.9842 19.48 49.6406 19.48C49.4165 19.48 49.2148 19.416 49.0355 19.288C48.7965 19.0889 48.4753 18.904 48.0719 18.7333C47.6685 18.5484 47.2427 18.3991 46.7945 18.2853C46.3463 18.1573 45.9279 18.0933 45.5395 18.0933C44.897 18.0933 44.3517 18.1716 43.9035 18.328C43.4702 18.4844 43.1415 18.6978 42.9174 18.968C42.6933 19.2382 42.5813 19.5511 42.5813 19.9067C42.5813 20.3333 42.7083 20.6889 42.9622 20.9733C43.2312 21.2436 43.6122 21.464 44.1052 21.6347C44.5982 21.7911 45.1883 21.9333 45.8756 22.0613C46.7721 22.2178 47.5564 22.4027 48.2288 22.616C48.916 22.8293 49.4838 23.1067 49.932 23.448C50.3802 23.7751 50.7163 24.1947 50.9404 24.7067C51.1646 25.2044 51.2766 25.816 51.2766 26.5413C51.2766 27.4658 51.0077 28.2622 50.4698 28.9307C49.932 29.5991 49.2223 30.1111 48.3408 30.4667C47.4742 30.8222 46.533 31 45.5171 31ZM62.4972 28.2907C62.8857 28.2907 63.2068 28.4116 63.4608 28.6533C63.7297 28.8809 63.8642 29.1796 63.8642 29.5493C63.8642 29.9049 63.7297 30.2036 63.4608 30.4453C63.2068 30.6729 62.8857 30.7867 62.4972 30.7867H55.2137C54.8253 30.7867 54.4965 30.6658 54.2276 30.424C53.9736 30.168 53.8466 29.8551 53.8466 29.4853V17.1547C53.8466 16.7849 53.9811 16.4791 54.25 16.2373C54.5189 15.9813 54.8626 15.8533 55.2809 15.8533C55.6395 15.8533 55.9532 15.9813 56.2222 16.2373C56.5061 16.4791 56.648 16.7849 56.648 17.1547V28.6533L56.1549 28.2907H62.4972ZM76.0226 19.16C76.411 19.16 76.7323 19.2809 76.9862 19.5227C77.2402 19.7644 77.3672 20.0773 77.3672 20.4613V29.4853C77.3672 29.8551 77.2402 30.168 76.9862 30.424C76.7323 30.6658 76.411 30.7867 76.0226 30.7867C75.6341 30.7867 75.3129 30.6658 75.0589 30.424C74.8049 30.168 74.6779 29.8551 74.6779 29.4853V28.44L75.1709 28.632C75.1709 28.8169 75.0663 29.0444 74.8572 29.3147C74.6481 29.5707 74.3642 29.8267 74.0056 30.0827C73.647 30.3387 73.2212 30.5591 72.7282 30.744C72.2501 30.9147 71.7272 31 71.1594 31C70.1286 31 69.1947 30.7511 68.3581 30.2533C67.5215 29.7413 66.8566 29.0444 66.3636 28.1627C65.8855 27.2667 65.6464 26.2427 65.6464 25.0907C65.6464 23.9244 65.8855 22.9004 66.3636 22.0187C66.8566 21.1227 67.5139 20.4258 68.3357 19.928C69.1574 19.416 70.0688 19.16 71.0698 19.16C71.7123 19.16 72.3024 19.2524 72.8402 19.4373C73.3781 19.6222 73.8413 19.8569 74.2297 20.1413C74.6331 20.4258 74.9394 20.7173 75.1485 21.016C75.3726 21.3004 75.4847 21.5422 75.4847 21.7413L74.6779 22.0187V20.4613C74.6779 20.0916 74.8049 19.7858 75.0589 19.544C75.3129 19.288 75.6341 19.16 76.0226 19.16ZM71.4956 28.6533C72.153 28.6533 72.7282 28.4969 73.2212 28.184C73.7143 27.8711 74.0952 27.4444 74.3642 26.904C74.6481 26.3636 74.79 25.7591 74.79 25.0907C74.79 24.408 74.6481 23.7964 74.3642 23.256C74.0952 22.7156 73.7143 22.2889 73.2212 21.976C72.7282 21.6631 72.153 21.5067 71.4956 21.5067C70.8531 21.5067 70.2854 21.6631 69.7924 21.976C69.2994 22.2889 68.9109 22.7156 68.627 23.256C68.3581 23.7964 68.2236 24.408 68.2236 25.0907C68.2236 25.7591 68.3581 26.3636 68.627 26.904C68.9109 27.4444 69.2994 27.8711 69.7924 28.184C70.2854 28.4969 70.8531 28.6533 71.4956 28.6533ZM86.4867 19.16C87.5323 19.16 88.4663 19.416 89.2883 19.928C90.1247 20.4258 90.7818 21.1156 91.2605 21.9973C91.7535 22.8791 92 23.9031 92 25.0693C92 26.2356 91.7535 27.2667 91.2605 28.1627C90.7818 29.0444 90.1319 29.7413 89.3107 30.2533C88.5039 30.7511 87.5923 31 86.5764 31C85.9788 31 85.4186 30.9076 84.8956 30.7227C84.3727 30.5378 83.9095 30.3031 83.5061 30.0187C83.1177 29.7342 82.8114 29.4498 82.5873 29.1653C82.3781 28.8667 82.2735 28.6178 82.2735 28.4187L82.9683 28.1413V29.6987C82.9683 30.0684 82.8412 30.3813 82.5873 30.6373C82.3333 30.8791 82.0121 31 81.6236 31C81.2352 31 80.9139 30.8791 80.66 30.6373C80.406 30.3956 80.279 30.0827 80.279 29.6987V16.3013C80.279 15.9316 80.406 15.6258 80.66 15.384C80.9139 15.128 81.2352 15 81.6236 15C82.0121 15 82.3333 15.128 82.5873 15.384C82.8412 15.6258 82.9683 15.9316 82.9683 16.3013V21.72L82.5873 21.528C82.5873 21.3431 82.6919 21.1227 82.901 20.8667C83.1102 20.5964 83.3941 20.3333 83.7526 20.0773C84.1112 19.8071 84.5221 19.5867 84.9852 19.416C85.4633 19.2453 85.9638 19.16 86.4867 19.16ZM86.1506 21.5067C85.4932 21.5067 84.918 21.6631 84.425 21.976C83.9319 22.2889 83.5435 22.7156 83.2596 23.256C82.9907 23.7822 82.8562 24.3867 82.8562 25.0693C82.8562 25.7378 82.9907 26.3493 83.2596 26.904C83.5435 27.4444 83.9319 27.8711 84.425 28.184C84.918 28.4969 85.4932 28.6533 86.1506 28.6533C86.808 28.6533 87.3754 28.4969 87.854 28.184C88.3471 27.8711 88.728 27.4444 88.997 26.904C89.2803 26.3493 89.4228 25.7378 89.4228 25.0693C89.4228 24.3867 89.2803 23.7822 88.997 23.256C88.728 22.7156 88.3471 22.2889 87.854 21.976C87.3754 21.6631 86.808 21.5067 86.1506 21.5067Z" fill="white"/>
</g>
<defs>
<filter id="filter0_d_686_2530" x="12" y="54" width="104" height="24" filterUnits="userSpaceOnUse" color-interpolation-filters="sRGB">
<feFlood flood-opacity="0" result="BackgroundImageFix"/>
<feColorMatrix in="SourceAlpha" type="matrix" values="0 0 0 0 0 0 0 0 0 0 0 0 0 0 0 0 0 0 127 0" result="hardAlpha"/>
<feOffset dx="4" dy="4"/>
<feGaussianBlur stdDeviation="2"/>
<feColorMatrix type="matrix" values="0 0 0 0 0 0 0 0 0 0 0 0 0 0 0 0 0 0 0.25 0"/>
<feBlend mode="normal" in2="BackgroundImageFix" result="effect1_dropShadow_686_2530"/>
<feBlend mode="normal" in="SourceGraphic" in2="effect1_dropShadow_686_2530" result="shape"/>
</filter>
<filter id="filter1_d_686_2530" x="28" y="15" width="72" height="24" filterUnits="userSpaceOnUse" color-interpolation-filters="sRGB">
<feFlood flood-opacity="0" result="BackgroundImageFix"/>
<feColorMatrix in="SourceAlpha" type="matrix" values="0 0 0 0 0 0 0 0 0 0 0 0 0 0 0 0 0 0 127 0" result="hardAlpha"/>
<feOffset dx="4" dy="4"/>
<feGaussianBlur stdDeviation="2"/>
<feColorMatrix type="matrix" values="0 0 0 0 1 0 0 0 0 1 0 0 0 0 1 0 0 0 0.25 0"/>
<feBlend mode="normal" in2="BackgroundImageFix" result="effect1_dropShadow_686_2530"/>
<feBlend mode="normal" in="SourceGraphic" in2="effect1_dropShadow_686_2530" result="shape"/>
</filter>
</defs>
</svg>
