<?xml version="1.0" standalone="no"?>
<!DOCTYPE svg PUBLIC "-//W3C//DTD SVG 20010904//EN"
 "http://www.w3.org/TR/2001/REC-SVG-20010904/DTD/svg10.dtd">
<svg version="1.0" xmlns="http://www.w3.org/2000/svg"
 width="128.000000pt" height="128.000000pt" viewBox="0 0 128.000000 128.000000"
 preserveAspectRatio="xMidYMid meet">

<g transform="translate(0.000000,128.000000) scale(0.100000,-0.100000)"
fill="#000000" stroke="none">
<path d="M0 1175 l0 -104 25 24 24 25 591 0 591 0 24 -25 25 -24 0 104 0 105
-640 0 -640 0 0 -105z"/>
<path d="M0 843 c1 -142 3 -175 13 -162 29 38 41 39 627 39 586 0 598 -1 627
-39 10 -13 12 20 13 162 l0 178 -24 -28 -24 -28 -592 0 -592 0 -24 28 -24 28
0 -178z"/>
<path d="M0 437 l0 -178 24 28 24 28 592 0 592 0 24 -28 24 -28 0 178 c-1 142
-3 175 -13 162 -29 -38 -41 -39 -627 -39 -586 0 -598 1 -627 39 -10 13 -12
-20 -13 -162z"/>
<path d="M0 105 l0 -105 640 0 640 0 0 105 0 104 -25 -24 -24 -25 -591 0 -591
0 -24 25 -25 24 0 -104z"/>
</g>
</svg>
